<svg width="1691" height="546" viewBox="0 0 1691 546" fill="none" xmlns="http://www.w3.org/2000/svg">
<g clip-path="url(#clip0_185_81)">
<rect x="1358" y="222" width="205" height="76" rx="38" fill="#5843CA"/>
<path d="M712.825 410C680.275 410 656.5 402.5 641.5 387.5C626.5 372.5 619 348.725 619 316.175V213.8C619 180.95 626.425 157.1 641.275 142.25C656.275 127.4 679.975 119.975 712.375 119.975H766.825C794.425 119.975 814.975 125.75 828.475 137.3C841.975 148.7 849.4 167.075 850.75 192.425C851.2 196.475 850.375 199.55 848.275 201.65C846.325 203.75 843.4 204.8 839.5 204.8C832 204.8 827.875 200.825 827.125 192.875C826.075 174.275 820.975 161.45 811.825 154.4C802.675 147.2 787.675 143.6 766.825 143.6H712.375C695.125 143.6 681.4 145.85 671.2 150.35C661 154.7 653.65 162.05 649.15 172.4C644.8 182.6 642.625 196.4 642.625 213.8V316.175C642.625 333.575 644.875 347.375 649.375 357.575C653.875 367.775 661.225 375.125 671.425 379.625C681.625 384.125 695.425 386.375 712.825 386.375H766.825C782.125 386.375 794.2 384.5 803.05 380.75C812.05 377 818.425 370.7 822.175 361.85C825.925 353 827.8 340.775 827.8 325.175V297.05L778.525 296.6C770.725 296.6 766.825 292.625 766.825 284.675C766.825 276.875 770.725 272.975 778.525 272.975L839.725 273.425C847.525 273.425 851.425 277.325 851.425 285.125V325.175C851.425 354.875 844.75 376.475 831.4 389.975C818.05 403.325 796.525 410 766.825 410H712.825ZM927.707 410C919.757 410 915.782 406.025 915.782 398.075V131.9C915.782 123.95 919.757 119.975 927.707 119.975C933.407 119.975 937.907 122.6 941.207 127.85L1053.26 299.075L1047.86 299.75L1159.91 127.85C1163.06 122.6 1167.78 119.975 1174.08 119.975C1181.13 119.975 1184.66 123.95 1184.66 131.9V398.075C1184.66 406.025 1180.76 410 1172.96 410C1165.01 410 1161.03 406.025 1161.03 398.075V155.525L1168.01 157.775L1064.06 316.175C1060.76 321.275 1056.03 323.825 1049.88 323.825C1044.48 323.825 1040.13 321.275 1036.83 316.175L932.882 157.775L939.407 160.25V398.075C939.407 406.025 935.507 410 927.707 410ZM1347.41 410C1314.86 410 1291.09 402.5 1276.09 387.5C1261.09 372.5 1253.59 348.725 1253.59 316.175V213.8C1253.59 180.95 1261.01 157.1 1275.86 142.25C1290.86 127.4 1314.56 119.975 1346.96 119.975H1401.41C1429.01 119.975 1449.56 125.75 1463.06 137.3C1476.56 148.7 1483.99 167.075 1485.34 192.425C1485.79 196.475 1484.96 199.55 1482.86 201.65C1480.91 203.75 1477.99 204.8 1474.09 204.8C1466.59 204.8 1462.46 200.825 1461.71 192.875C1460.66 174.275 1455.56 161.45 1446.41 154.4C1437.26 147.2 1422.26 143.6 1401.41 143.6H1346.96C1329.71 143.6 1315.99 145.85 1305.79 150.35C1295.59 154.7 1288.24 162.05 1283.74 172.4C1279.39 182.6 1277.21 196.4 1277.21 213.8V316.175C1277.21 333.575 1279.46 347.375 1283.96 357.575C1288.46 367.775 1295.81 375.125 1306.01 379.625C1316.21 384.125 1330.01 386.375 1347.41 386.375H1401.41C1422.26 386.375 1437.26 382.85 1446.41 375.8C1455.56 368.6 1460.66 355.7 1461.71 337.1C1462.46 329.15 1466.59 325.175 1474.09 325.175C1477.99 325.175 1480.91 326.3 1482.86 328.55C1484.96 330.65 1485.79 333.65 1485.34 337.55C1483.99 362.9 1476.56 381.35 1463.06 392.9C1449.56 404.3 1429.01 410 1401.41 410H1347.41Z" fill="white"/>
<path d="M136 218.121H306.268H409.788V115.567L136 218.121Z" fill="white"/>
<path d="M409.788 115.565V478.225L539 67L409.788 115.565Z" fill="#9595FC"/>
<path d="M409.789 218.243H306.268L409.789 478.223V218.243Z" fill="#5843CA"/>
<path d="M136 218.118L332.84 284.847L306.268 218.118H136Z" fill="#1E4069"/>
<path d="M1385.08 274V240.88H1401.02C1406.23 240.88 1408.84 243.488 1408.84 248.704V255.088C1408.84 260.272 1406.23 262.864 1401.02 262.864H1390.94V274H1385.08ZM1390.94 257.536H1400.87C1402.28 257.536 1402.98 256.832 1402.98 255.424V248.272C1402.98 246.896 1402.28 246.208 1400.87 246.208H1390.94V257.536ZM1419.39 266.176V248.704C1419.39 243.488 1422 240.88 1427.21 240.88H1438.2C1443.42 240.88 1446.03 243.488 1446.03 248.704V266.176C1446.03 271.392 1443.42 274 1438.2 274H1427.21C1422 274 1419.39 271.392 1419.39 266.176ZM1425.24 266.608C1425.24 267.984 1425.95 268.672 1427.36 268.672H1438.06C1439.47 268.672 1440.17 267.984 1440.17 266.608V248.272C1440.17 246.896 1439.47 246.208 1438.06 246.208H1427.36C1425.95 246.208 1425.24 246.896 1425.24 248.272V266.608ZM1458.03 274V240.88H1463.89V274H1458.03ZM1476.37 274V240.88H1482.75L1497.44 264.496V240.88H1503.3V274H1496.96L1482.22 250.384V274H1476.37ZM1512.87 246.208V240.88H1539.61V246.208H1529.19V274H1523.29V246.208H1512.87Z" fill="white"/>
</g>
<defs>
<clipPath id="clip0_185_81">
<rect width="1691" height="546" fill="white"/>
</clipPath>
</defs>
</svg>
