<svg width="1691" height="546" viewBox="0 0 1691 546" fill="none" xmlns="http://www.w3.org/2000/svg">
<g clip-path="url(#clip0_185_81)">
<path d="M712.825 410C680.275 410 656.5 402.5 641.5 387.5C626.5 372.5 619 348.725 619 316.175V213.8C619 180.95 626.425 157.1 641.275 142.25C656.275 127.4 679.975 119.975 712.375 119.975H766.825C794.425 119.975 814.975 125.75 828.475 137.3C841.975 148.7 849.4 167.075 850.75 192.425C851.2 196.475 850.375 199.55 848.275 201.65C846.325 203.75 843.4 204.8 839.5 204.8C832 204.8 827.875 200.825 827.125 192.875C826.075 174.275 820.975 161.45 811.825 154.4C802.675 147.2 787.675 143.6 766.825 143.6H712.375C695.125 143.6 681.4 145.85 671.2 150.35C661 154.7 653.65 162.05 649.15 172.4C644.8 182.6 642.625 196.4 642.625 213.8V316.175C642.625 333.575 644.875 347.375 649.375 357.575C653.875 367.775 661.225 375.125 671.425 379.625C681.625 384.125 695.425 386.375 712.825 386.375H766.825C782.125 386.375 794.2 384.5 803.05 380.75C812.05 377 818.425 370.7 822.175 361.85C825.925 353 827.8 340.775 827.8 325.175V297.05L778.525 296.6C770.725 296.6 766.825 292.625 766.825 284.675C766.825 276.875 770.725 272.975 778.525 272.975L839.725 273.425C847.525 273.425 851.425 277.325 851.425 285.125V325.175C851.425 354.875 844.75 376.475 831.4 389.975C818.05 403.325 796.525 410 766.825 410H712.825ZM927.707 410C919.757 410 915.782 406.025 915.782 398.075V131.9C915.782 123.95 919.757 119.975 927.707 119.975C933.407 119.975 937.907 122.6 941.207 127.85L1053.26 299.075L1047.86 299.75L1159.91 127.85C1163.06 122.6 1167.78 119.975 1174.08 119.975C1181.13 119.975 1184.66 123.95 1184.66 131.9V398.075C1184.66 406.025 1180.76 410 1172.96 410C1165.01 410 1161.03 406.025 1161.03 398.075V155.525L1168.01 157.775L1064.06 316.175C1060.76 321.275 1056.03 323.825 1049.88 323.825C1044.48 323.825 1040.13 321.275 1036.83 316.175L932.882 157.775L939.407 160.25V398.075C939.407 406.025 935.507 410 927.707 410ZM1347.41 410C1314.86 410 1291.09 402.5 1276.09 387.5C1261.09 372.5 1253.59 348.725 1253.59 316.175V213.8C1253.59 180.95 1261.01 157.1 1275.86 142.25C1290.86 127.4 1314.56 119.975 1346.96 119.975H1401.41C1429.01 119.975 1449.56 125.75 1463.06 137.3C1476.56 148.7 1483.99 167.075 1485.34 192.425C1485.79 196.475 1484.96 199.55 1482.86 201.65C1480.91 203.75 1477.99 204.8 1474.09 204.8C1466.59 204.8 1462.46 200.825 1461.71 192.875C1460.66 174.275 1455.56 161.45 1446.41 154.4C1437.26 147.2 1422.26 143.6 1401.41 143.6H1346.96C1329.71 143.6 1315.99 145.85 1305.79 150.35C1295.59 154.7 1288.24 162.05 1283.74 172.4C1279.39 182.6 1277.21 196.4 1277.21 213.8V316.175C1277.21 333.575 1279.46 347.375 1283.96 357.575C1288.46 367.775 1295.81 375.125 1306.01 379.625C1316.21 384.125 1330.01 386.375 1347.41 386.375H1401.41C1422.26 386.375 1437.26 382.85 1446.41 375.8C1455.56 368.6 1460.66 355.7 1461.71 337.1C1462.46 329.15 1466.59 325.175 1474.09 325.175C1477.99 325.175 1480.91 326.3 1482.86 328.55C1484.96 330.65 1485.79 333.65 1485.34 337.55C1483.99 362.9 1476.56 381.35 1463.06 392.9C1449.56 404.3 1429.01 410 1401.41 410H1347.41Z" fill="white"/>
<path d="M100.44 309.291L240.055 184.645C258.153 168.744 269.356 146.431 269.356 122.066C269.356 97.9579 258.44 75.9013 240.916 60L101.302 184.645C83.2036 200.547 72 222.86 72 247.225C72 271.589 82.9164 293.389 100.44 309.291ZM438.56 236.453L298.945 361.098C280.847 376.999 269.644 399.312 269.644 423.677C269.644 447.786 280.56 469.842 298.084 485.743L437.698 361.098C455.796 345.197 467 322.884 467 298.519C467 274.154 456.084 252.354 438.56 236.453ZM437.698 184.902C455.796 169.001 467 146.688 467 122.323C467 98.2143 456.084 76.1577 438.56 60.2565L101.302 361.098C83.2036 377.256 72 399.312 72 423.934C72 448.042 82.9164 470.099 100.44 486L437.698 184.902Z" fill="#1292EE"/>
<circle cx="1535.5" cy="262.5" r="48.5" fill="#1292EE"/>
<path d="M1512.68 305.2V236.08H1539.56C1549.16 236.08 1553.96 240.88 1553.96 250.48V271.6C1553.96 281.2 1549.16 286 1539.56 286H1520.36V305.2H1512.68ZM1520.36 279.28H1539.56C1544.04 279.28 1546.28 277.04 1546.28 272.56V249.52C1546.28 245.04 1544.04 242.8 1539.56 242.8H1520.36V279.28Z" fill="white"/>
<path d="M1512.96 305.114C1512.96 305.132 1512.96 305.135 1512.98 305.137C1513.01 305.14 1513.02 305.162 1513.05 305.169C1513.1 305.181 1513.14 305.199 1513.19 305.213C1513.23 305.225 1513.28 305.226 1513.32 305.253C1513.33 305.265 1513.38 305.287 1513.4 305.289C1513.44 305.294 1513.49 305.322 1513.52 305.339C1513.56 305.356 1513.59 305.37 1513.62 305.382C1513.66 305.394 1513.72 305.405 1513.75 305.427C1513.78 305.449 1513.82 305.45 1513.85 305.466" stroke="white" stroke-width="0.5" stroke-linecap="round"/>
<path d="M1512.76 305.106C1512.78 305.139 1512.82 305.141 1512.84 305.161C1512.87 305.186 1512.92 305.205 1512.96 305.214C1512.99 305.221 1513.05 305.25 1513.07 305.27C1513.09 305.285 1513.12 305.29 1513.14 305.302C1513.17 305.32 1513.2 305.342 1513.24 305.354C1513.3 305.377 1513.37 305.425 1513.44 305.443C1513.51 305.464 1513.59 305.514 1513.66 305.556C1513.7 305.583 1513.75 305.601 1513.8 305.627C1513.87 305.665 1513.94 305.706 1514.02 305.733C1514.08 305.755 1514.13 305.788 1514.19 305.804C1514.21 305.809 1514.24 305.813 1514.25 305.826" stroke="white" stroke-width="0.5" stroke-linecap="round"/>
<path d="M1514.13 305.803C1514.19 305.833 1514.24 305.856 1514.29 305.879C1514.35 305.903 1514.41 305.923 1514.47 305.95C1514.51 305.969 1514.54 305.992 1514.58 306.017C1514.63 306.047 1514.68 306.051 1514.73 306.074C1514.76 306.089 1514.79 306.103 1514.83 306.111C1514.85 306.118 1514.88 306.112 1514.91 306.118C1514.97 306.133 1515.02 306.158 1515.08 306.176C1515.1 306.184 1515.13 306.189 1515.16 306.199C1515.18 306.209 1515.2 306.23 1515.22 306.238C1515.28 306.257 1515.34 306.28 1515.4 306.312C1515.43 306.331 1515.46 306.338 1515.49 306.357C1515.52 306.375 1515.55 306.398 1515.58 306.412C1515.6 306.423 1515.64 306.438 1515.66 306.453C1515.69 306.474 1515.73 306.48 1515.76 306.5C1515.84 306.556 1515.94 306.557 1516.03 306.595C1516.1 306.625 1516.18 306.628 1516.25 306.664C1516.3 306.695 1516.37 306.698 1516.43 306.733C1516.49 306.775 1516.58 306.8 1516.65 306.825C1516.77 306.865 1516.9 306.913 1517.02 306.954C1517.09 306.977 1517.16 307.014 1517.22 307.028" stroke="white" stroke-width="0.5" stroke-linecap="round"/>
<path d="M1514.86 306.132C1514.98 306.243 1515.12 306.266 1515.25 306.34C1515.32 306.378 1515.4 306.395 1515.47 306.43C1515.52 306.456 1515.57 306.475 1515.62 306.496C1515.65 306.51 1515.69 306.532 1515.72 306.539C1515.76 306.546 1515.79 306.556 1515.82 306.57C1515.9 306.608 1515.99 306.628 1516.06 306.668C1516.1 306.684 1516.14 306.701 1516.17 306.714C1516.21 306.731 1516.25 306.752 1516.3 306.763C1516.34 306.773 1516.37 306.792 1516.4 306.813C1516.43 306.833 1516.47 306.827 1516.5 306.846C1516.57 306.885 1516.65 306.891 1516.72 306.921C1516.78 306.946 1516.85 306.966 1516.91 306.991C1516.98 307.023 1517.06 307.052 1517.15 307.074C1517.21 307.091 1517.27 307.116 1517.33 307.133C1517.46 307.169 1517.58 307.231 1517.71 307.273C1517.87 307.327 1518.03 307.395 1518.19 307.449" stroke="white" stroke-width="0.5" stroke-linecap="round"/>
<path d="M1516.85 306.905C1516.94 306.934 1517.01 306.968 1517.08 307.005C1517.13 307.028 1517.19 307.028 1517.24 307.051C1517.32 307.089 1517.4 307.1 1517.47 307.149C1517.49 307.16 1517.52 307.174 1517.54 307.179C1517.56 307.183 1517.57 307.179 1517.59 307.189C1517.6 307.196 1517.61 307.206 1517.62 307.212C1517.68 307.239 1517.75 307.271 1517.81 307.299C1517.89 307.334 1517.97 307.37 1518.06 307.395C1518.09 307.406 1518.13 307.417 1518.16 307.424C1518.17 307.426 1518.21 307.424 1518.19 307.434" stroke="white" stroke-width="0.5" stroke-linecap="round"/>
<path d="M1516.66 307.013C1516.78 307.071 1516.91 307.13 1517.05 307.177C1517.08 307.189 1517.11 307.187 1517.15 307.204C1517.18 307.217 1517.21 307.226 1517.23 307.235C1517.28 307.249 1517.34 307.247 1517.38 307.267C1517.44 307.292 1517.5 307.304 1517.55 307.323C1517.75 307.391 1517.95 307.441 1518.14 307.514C1518.22 307.544 1518.3 307.571 1518.38 307.601C1518.44 307.622 1518.51 307.63 1518.57 307.656C1518.59 307.669 1518.62 307.694 1518.65 307.694" stroke="white" stroke-width="0.5" stroke-linecap="round"/>
<path d="M1520.06 304.783V308.227" stroke="white" stroke-width="0.5" stroke-linecap="round"/>
<path d="M1520.05 304.495V306.739" stroke="white" stroke-width="0.5" stroke-linecap="round"/>
<path d="M1520.07 304.747V307.183" stroke="white" stroke-width="0.5" stroke-linecap="round"/>
<path d="M1520.08 304.327V306.763" stroke="white" stroke-width="0.5" stroke-linecap="round"/>
<path d="M1520.05 304.711V307.207" stroke="white" stroke-width="0.5" stroke-linecap="round"/>
<path d="M1520.07 305.095V305.935" stroke="white" stroke-width="0.5" stroke-linecap="round"/>
<path d="M1520.08 305.131V306.199" stroke="white" stroke-width="0.5" stroke-linecap="round"/>
<path d="M1520.15 305.155C1520.09 305.23 1520.12 305.409 1520.12 305.509C1520.12 305.567 1520.12 305.625 1520.12 305.683C1520.12 305.788 1520.12 305.893 1520.12 305.997C1520.12 306.284 1520.12 306.571 1520.12 306.858C1520.12 307.232 1520.12 307.605 1520.12 307.979C1520.12 308.076 1520.12 308.172 1520.12 308.269C1520.12 308.33 1520.12 308.314 1520.12 308.263C1520.12 308.253 1520.12 308.294 1520.12 308.294C1520.12 308.294 1520.12 308.257 1520.12 308.239" stroke="white" stroke-width="0.5" stroke-linecap="round"/>
<path d="M1520.15 308.18C1520.16 308.211 1520.18 308.238 1520.18 308.271C1520.18 308.276 1520.17 308.294 1520.17 308.289" stroke="white" stroke-width="0.5" stroke-linecap="round"/>
<path d="M1518.41 307.703H1519.77" stroke="white" stroke-width="0.5" stroke-linecap="round"/>
<path d="M1518.7 307.773C1518.84 307.823 1518.98 307.87 1519.11 307.921C1519.14 307.929 1519.16 307.932 1519.18 307.946C1519.21 307.962 1519.23 307.965 1519.26 307.976C1519.29 307.987 1519.31 307.995 1519.34 308.002C1519.39 308.015 1519.44 308.033 1519.49 308.04C1519.52 308.044 1519.55 308.056 1519.58 308.064C1519.6 308.072 1519.63 308.079 1519.66 308.09C1519.68 308.1 1519.71 308.112 1519.74 308.113C1519.76 308.115 1519.78 308.126 1519.8 308.129C1519.82 308.132 1519.84 308.144 1519.86 308.148C1519.88 308.15 1519.9 308.149 1519.91 308.155C1519.93 308.163 1519.94 308.171 1519.96 308.179C1519.97 308.184 1520 308.201 1520.01 308.188" stroke="white" stroke-width="0.5" stroke-linecap="round"/>
<path d="M1514.46 305.138C1514.78 305.179 1515.11 305.227 1515.43 305.273C1515.71 305.314 1516.04 305.338 1516.32 305.409C1516.44 305.438 1516.08 305.407 1515.95 305.4C1515.67 305.384 1515.4 305.356 1515.12 305.333C1514.82 305.309 1514.51 305.295 1514.21 305.235C1513.99 305.191 1514.66 305.273 1514.88 305.273C1515.08 305.273 1515.69 305.273 1515.49 305.273C1515.26 305.273 1515.03 305.273 1514.81 305.273C1514.7 305.273 1514.6 305.268 1514.49 305.274C1514.47 305.275 1514.43 305.299 1514.41 305.282C1514.32 305.19 1514.21 305.108 1514.07 305.108C1514 305.108 1513.78 305.151 1513.93 305.22C1513.98 305.245 1514 305.303 1514.06 305.33C1514.13 305.366 1514.17 305.414 1514.23 305.46C1514.35 305.544 1514.46 305.632 1514.59 305.694C1514.77 305.784 1514.95 305.78 1515.15 305.811C1515.23 305.824 1515.31 305.847 1515.39 305.866C1515.44 305.877 1515.48 305.871 1515.52 305.89C1515.56 305.906 1515.61 305.933 1515.65 305.935C1515.74 305.939 1515.82 305.967 1515.89 306.009C1515.96 306.054 1516.06 306.047 1516.13 306.088C1516.29 306.176 1516.47 306.249 1516.64 306.311C1516.75 306.35 1516.85 306.401 1516.96 306.438C1517.01 306.456 1517.05 306.48 1517.1 306.497C1517.16 306.514 1517.21 306.504 1517.26 306.524C1517.5 306.619 1517.74 306.638 1517.98 306.702C1518.07 306.725 1518.16 306.746 1518.25 306.768C1518.37 306.798 1518.49 306.787 1518.61 306.815C1518.72 306.842 1518.83 306.859 1518.95 306.868C1519.02 306.873 1519.09 306.909 1519.16 306.912C1519.19 306.913 1519.27 306.926 1519.29 306.903C1519.38 306.817 1519.38 306.704 1519.42 306.598C1519.51 306.354 1519.56 306.098 1519.65 305.855C1519.69 305.752 1519.71 305.649 1519.74 305.544C1519.76 305.465 1519.8 305.393 1519.82 305.312C1519.83 305.229 1519.85 305.129 1519.86 305.044C1519.86 304.959 1519.87 305.024 1519.85 305.054C1519.82 305.095 1519.81 305.141 1519.78 305.183C1519.76 305.228 1519.71 305.213 1519.66 305.213C1519.23 305.213 1518.8 305.213 1518.37 305.213C1517.8 305.213 1517.23 305.213 1516.66 305.213C1516.54 305.213 1516.42 305.221 1516.31 305.213C1516.26 305.21 1516.23 305.171 1516.18 305.168C1516.14 305.165 1516.1 305.168 1516.06 305.168C1515.98 305.168 1515.75 305.148 1515.75 305.281C1515.75 305.422 1515.7 305.583 1515.8 305.709C1515.93 305.874 1516.1 305.998 1516.26 306.129C1516.32 306.178 1516.4 306.206 1516.46 306.262C1516.53 306.331 1516.43 306.289 1516.38 306.266C1516.3 306.222 1516.21 306.205 1516.11 306.205C1516.05 306.205 1516.04 306.173 1515.99 306.161C1515.95 306.153 1515.92 306.153 1515.92 306.194C1515.92 306.289 1516.13 306.366 1516.2 306.409C1516.28 306.468 1516.37 306.525 1516.46 306.58C1516.56 306.645 1516.68 306.674 1516.79 306.72C1516.93 306.779 1517.08 306.819 1517.23 306.875C1517.44 306.961 1517.66 307.031 1517.89 307.084C1517.96 307.101 1518.04 307.09 1518.11 307.092C1518.2 307.095 1518.29 307.135 1518.38 307.156C1518.47 307.181 1518.55 307.218 1518.65 307.229C1518.75 307.238 1518.84 307.282 1518.93 307.306C1519.06 307.34 1519.19 307.363 1519.32 307.363C1519.43 307.363 1519.51 307.319 1519.59 307.243C1519.63 307.199 1519.64 307.139 1519.67 307.085C1519.7 307.023 1519.74 306.943 1519.76 306.874C1519.79 306.781 1519.84 306.625 1519.78 306.533C1519.75 306.481 1519.74 306.4 1519.7 306.357C1519.67 306.324 1519.68 306.246 1519.68 306.337C1519.68 306.519 1519.68 306.7 1519.68 306.882C1519.68 307.013 1519.66 307.158 1519.68 307.288C1519.69 307.367 1519.7 307.43 1519.73 307.498C1519.76 307.544 1519.7 307.384 1519.69 307.367C1519.6 307.126 1519.54 306.888 1519.51 306.633C1519.47 306.354 1519.47 306.066 1519.47 305.784C1519.47 305.633 1519.47 305.482 1519.47 305.33C1519.47 305.281 1519.47 305.19 1519.47 305.297C1519.47 305.42 1519.47 305.543 1519.47 305.666C1519.47 305.781 1519.43 305.885 1519.41 305.997C1519.39 306.111 1519.38 306.222 1519.35 306.334C1519.31 306.471 1519.27 306.553 1519.14 306.608C1519.1 306.623 1519.01 306.616 1518.98 306.595C1518.95 306.579 1518.92 306.56 1518.89 306.543C1518.85 306.514 1518.79 306.507 1518.75 306.476C1518.47 306.285 1518.08 306.277 1517.76 306.249C1517.42 306.219 1517.08 306.124 1516.75 306.042C1516.66 306.02 1516.57 305.964 1516.49 305.928C1516.42 305.899 1516.35 305.86 1516.29 305.83C1516.23 305.803 1516.05 305.694 1516.2 305.694C1516.48 305.694 1516.75 305.659 1517.02 305.635C1517.79 305.568 1518.57 305.514 1519.35 305.514C1519.46 305.514 1519.22 305.717 1519.21 305.771C1519.19 305.849 1519.13 305.909 1519.11 305.988C1519.09 306.045 1519.07 306.096 1519.04 306.152C1519 306.281 1518.8 306.145 1518.75 306.109C1518.41 305.902 1517.97 305.957 1517.59 305.927C1517.47 305.917 1517.35 305.923 1517.23 305.92C1517.16 305.918 1517.14 305.909 1517.23 305.904C1517.43 305.891 1517.63 305.876 1517.83 305.863C1518.05 305.849 1518.27 305.873 1518.49 305.837C1518.69 305.803 1518.9 305.784 1519.11 305.784" stroke="white" stroke-width="0.5" stroke-linecap="round"/>
</g>
<defs>
<clipPath id="clip0_185_81">
<rect width="1691" height="546" fill="white"/>
</clipPath>
</defs>
</svg>
